<svg width="68" height="68" viewBox="0 0 68 68" fill="none" xmlns="http://www.w3.org/2000/svg">
<path d="M53.125 68C57.0701 68 60.8536 66.4328 63.6432 63.6432C66.4328 60.8536 68 57.0701 68 53.125C68 49.1799 66.4328 45.3964 63.6432 42.6068C60.8536 39.8172 57.0701 38.25 53.125 38.25C49.1799 38.25 45.3964 39.8172 42.6068 42.6068C39.8172 45.3964 38.25 49.1799 38.25 53.125C38.25 57.0701 39.8172 60.8536 42.6068 63.6432C45.3964 66.4328 49.1799 68 53.125 68ZM54.6295 43.1205L61.0045 49.4955C61.4035 49.8945 61.6277 50.4357 61.6277 51C61.6277 51.5643 61.4035 52.1055 61.0045 52.5045C60.6055 52.9035 60.0643 53.1277 59.5 53.1277C58.9357 53.1277 58.3945 52.9035 57.9955 52.5045L55.25 49.7547V61.625C55.25 62.1886 55.0261 62.7291 54.6276 63.1276C54.2291 63.5261 53.6886 63.75 53.125 63.75C52.5614 63.75 52.0209 63.5261 51.6224 63.1276C51.2239 62.7291 51 62.1886 51 61.625V49.7547L48.2545 52.5045C47.8555 52.9035 47.3143 53.1277 46.75 53.1277C46.1857 53.1277 45.6445 52.9035 45.2455 52.5045C44.8465 52.1055 44.6223 51.5643 44.6223 51C44.6223 50.4357 44.8465 49.8945 45.2455 49.4955L51.6205 43.1205C51.8179 42.9226 52.0524 42.7656 52.3106 42.6585C52.5687 42.5513 52.8455 42.4962 53.125 42.4962C53.4045 42.4962 53.6813 42.5513 53.9394 42.6585C54.1976 42.7656 54.4321 42.9226 54.6295 43.1205Z" fill="#002079"/>
<path d="M8.5 4.25C8.5 3.12283 8.94777 2.04183 9.7448 1.2448C10.5418 0.447767 11.6228 0 12.75 0L55.25 0C56.3772 0 57.4582 0.447767 58.2552 1.2448C59.0522 2.04183 59.5 3.12283 59.5 4.25V31.875C59.5 32.4386 59.2761 32.9791 58.8776 33.3776C58.4791 33.7761 57.9386 34 57.375 34C56.8114 34 56.2709 33.7761 55.8724 33.3776C55.4739 32.9791 55.25 32.4386 55.25 31.875V4.25H12.75V63.75H25.5V53.125C25.5 52.5614 25.7239 52.0209 26.1224 51.6224C26.5209 51.2239 27.0614 51 27.625 51H34V68H12.75C11.6228 68 10.5418 67.5522 9.7448 66.7552C8.94777 65.9582 8.5 64.8772 8.5 63.75V4.25Z" fill="#002079"/>
<path d="M19.125 8.5C18.5614 8.5 18.0209 8.72388 17.6224 9.1224C17.2239 9.52091 17 10.0614 17 10.625V14.875C17 15.4386 17.2239 15.9791 17.6224 16.3776C18.0209 16.7761 18.5614 17 19.125 17H23.375C23.9386 17 24.4791 16.7761 24.8776 16.3776C25.2761 15.9791 25.5 15.4386 25.5 14.875V10.625C25.5 10.0614 25.2761 9.52091 24.8776 9.1224C24.4791 8.72388 23.9386 8.5 23.375 8.5H19.125ZM31.875 8.5C31.3114 8.5 30.7709 8.72388 30.3724 9.1224C29.9739 9.52091 29.75 10.0614 29.75 10.625V14.875C29.75 15.4386 29.9739 15.9791 30.3724 16.3776C30.7709 16.7761 31.3114 17 31.875 17H36.125C36.6886 17 37.2291 16.7761 37.6276 16.3776C38.0261 15.9791 38.25 15.4386 38.25 14.875V10.625C38.25 10.0614 38.0261 9.52091 37.6276 9.1224C37.2291 8.72388 36.6886 8.5 36.125 8.5H31.875ZM44.625 8.5C44.0614 8.5 43.5209 8.72388 43.1224 9.1224C42.7239 9.52091 42.5 10.0614 42.5 10.625V14.875C42.5 15.4386 42.7239 15.9791 43.1224 16.3776C43.5209 16.7761 44.0614 17 44.625 17H48.875C49.4386 17 49.9791 16.7761 50.3776 16.3776C50.7761 15.9791 51 15.4386 51 14.875V10.625C51 10.0614 50.7761 9.52091 50.3776 9.1224C49.9791 8.72388 49.4386 8.5 48.875 8.5H44.625ZM19.125 21.25C18.5614 21.25 18.0209 21.4739 17.6224 21.8724C17.2239 22.2709 17 22.8114 17 23.375V27.625C17 28.1886 17.2239 28.7291 17.6224 29.1276C18.0209 29.5261 18.5614 29.75 19.125 29.75H23.375C23.9386 29.75 24.4791 29.5261 24.8776 29.1276C25.2761 28.7291 25.5 28.1886 25.5 27.625V23.375C25.5 22.8114 25.2761 22.2709 24.8776 21.8724C24.4791 21.4739 23.9386 21.25 23.375 21.25H19.125ZM31.875 21.25C31.3114 21.25 30.7709 21.4739 30.3724 21.8724C29.9739 22.2709 29.75 22.8114 29.75 23.375V27.625C29.75 28.1886 29.9739 28.7291 30.3724 29.1276C30.7709 29.5261 31.3114 29.75 31.875 29.75H36.125C36.6886 29.75 37.2291 29.5261 37.6276 29.1276C38.0261 28.7291 38.25 28.1886 38.25 27.625V23.375C38.25 22.8114 38.0261 22.2709 37.6276 21.8724C37.2291 21.4739 36.6886 21.25 36.125 21.25H31.875ZM44.625 21.25C44.0614 21.25 43.5209 21.4739 43.1224 21.8724C42.7239 22.2709 42.5 22.8114 42.5 23.375V27.625C42.5 28.1886 42.7239 28.7291 43.1224 29.1276C43.5209 29.5261 44.0614 29.75 44.625 29.75H48.875C49.4386 29.75 49.9791 29.5261 50.3776 29.1276C50.7761 28.7291 51 28.1886 51 27.625V23.375C51 22.8114 50.7761 22.2709 50.3776 21.8724C49.9791 21.4739 49.4386 21.25 48.875 21.25H44.625ZM19.125 34C18.5614 34 18.0209 34.2239 17.6224 34.6224C17.2239 35.0209 17 35.5614 17 36.125V40.375C17 40.9386 17.2239 41.4791 17.6224 41.8776C18.0209 42.2761 18.5614 42.5 19.125 42.5H23.375C23.9386 42.5 24.4791 42.2761 24.8776 41.8776C25.2761 41.4791 25.5 40.9386 25.5 40.375V36.125C25.5 35.5614 25.2761 35.0209 24.8776 34.6224C24.4791 34.2239 23.9386 34 23.375 34H19.125ZM31.875 34C31.3114 34 30.7709 34.2239 30.3724 34.6224C29.9739 35.0209 29.75 35.5614 29.75 36.125V40.375C29.75 40.9386 29.9739 41.4791 30.3724 41.8776C30.7709 42.2761 31.3114 42.5 31.875 42.5H36.125C36.6886 42.5 37.2291 42.2761 37.6276 41.8776C38.0261 41.4791 38.25 40.9386 38.25 40.375V36.125C38.25 35.5614 38.0261 35.0209 37.6276 34.6224C37.2291 34.2239 36.6886 34 36.125 34H31.875Z" fill="#002079"/>
</svg>
