<svg width="78" height="78" viewBox="0 0 78 78" fill="none" xmlns="http://www.w3.org/2000/svg">
<path d="M17.0625 48.75C18.4087 48.75 19.5 47.6587 19.5 46.3125C19.5 44.9663 18.4087 43.875 17.0625 43.875C15.7163 43.875 14.625 44.9663 14.625 46.3125C14.625 47.6587 15.7163 48.75 17.0625 48.75Z" fill="#002079"/>
<path d="M39 29.25C40.3462 29.25 41.4375 28.1587 41.4375 26.8125C41.4375 25.4663 40.3462 24.375 39 24.375C37.6538 24.375 36.5625 25.4663 36.5625 26.8125C36.5625 28.1587 37.6538 29.25 39 29.25Z" fill="#002079"/>
<path d="M60.9375 48.75C62.2837 48.75 63.375 47.6587 63.375 46.3125C63.375 44.9663 62.2837 43.875 60.9375 43.875C59.5913 43.875 58.5 44.9663 58.5 46.3125C58.5 47.6587 59.5913 48.75 60.9375 48.75Z" fill="#002079"/>
<path d="M24.375 36.5625C25.7212 36.5625 26.8125 35.4712 26.8125 34.125C26.8125 32.7788 25.7212 31.6875 24.375 31.6875C23.0288 31.6875 21.9375 32.7788 21.9375 34.125C21.9375 35.4712 23.0288 36.5625 24.375 36.5625Z" fill="#002079"/>
<path d="M73.125 48.75H68.25C68.25 45.6739 67.7747 42.6465 66.8387 39.7483L71.4797 38.2493C72.5717 41.6325 73.125 45.1669 73.125 48.75ZM72.7594 21.8839L66.8216 27.8216C65.9076 28.7359 64.6678 29.2497 63.375 29.25C62.412 29.2475 61.4713 28.9601 60.6713 28.424C59.8713 27.8879 59.2478 27.1272 58.8793 26.2374C58.5108 25.3477 58.4138 24.3689 58.6005 23.4242C58.7871 22.4794 59.2492 21.6111 59.9284 20.9284L65.8686 14.9882C65.0566 14.7598 64.2184 14.6377 63.375 14.625C57.9979 14.625 53.625 19.0003 53.625 24.375C53.625 26.1788 54.1491 27.8484 55.0071 29.2988L43.9213 40.3845C42.4347 39.4884 40.7334 39.0109 38.9976 39.0024C33.6229 39.0024 29.2476 43.3753 29.2476 48.7524C29.2476 54.1296 33.6229 58.5024 38.9976 58.5024C44.3722 58.5024 48.7476 54.1271 48.7476 48.7524C48.7476 46.9487 48.2259 45.2814 47.3679 43.8287L58.4537 32.7454C59.9396 33.6411 61.64 34.1186 63.375 34.1274C68.7521 34.1274 73.125 29.7521 73.125 24.3774C73.1115 23.5339 72.9886 22.6957 72.7594 21.8839ZM39 53.625C36.3114 53.625 34.125 51.4386 34.125 48.75C34.125 46.0614 36.3114 43.875 39 43.875C41.6886 43.875 43.875 46.0639 43.875 48.75C43.875 51.4361 41.6886 53.625 39 53.625ZM9.75 48.75H4.875C4.875 29.9325 20.1825 14.625 39 14.625C42.5831 14.625 46.1175 15.1783 49.4983 16.2703L48.0017 20.9113C45.0933 19.9735 42.0559 19.4973 39 19.5C22.8711 19.5 9.75 32.6211 9.75 48.75Z" fill="#002079"/>
</svg>
