<svg width="72" height="72" viewBox="0 0 72 72" fill="none" xmlns="http://www.w3.org/2000/svg">
<path d="M33 39V27C33 25.35 31.65 24 30 24H18V18H30C31.65 18 33 16.65 33 15C33 13.35 31.65 12 30 12H25.5C25.5 10.35 24.15 9 22.5 9C20.85 9 19.5 10.35 19.5 12H15C13.35 12 12 13.35 12 15V27C12 28.65 13.35 30 15 30H27V36H15C13.35 36 12 37.35 12 39C12 40.65 13.35 42 15 42H19.5C19.5 43.65 20.85 45 22.5 45C24.15 45 25.5 43.65 25.5 42H30C31.65 42 33 40.65 33 39ZM56.64 39.66L41.79 54.51L35.43 48.15C34.8691 47.5891 34.1083 47.2739 33.315 47.2739C32.5217 47.2739 31.7609 47.5891 31.2 48.15C30.6391 48.7109 30.3239 49.4717 30.3239 50.265C30.3239 51.0583 30.6391 51.8191 31.2 52.38L39.69 60.87C40.86 62.04 42.75 62.04 43.92 60.87L60.9 43.89C61.1781 43.6125 61.3988 43.2828 61.5493 42.9199C61.6998 42.557 61.7773 42.1679 61.7773 41.775C61.7773 41.3821 61.6998 40.993 61.5493 40.6301C61.3988 40.2672 61.1781 39.9375 60.9 39.66C59.7 38.49 57.81 38.49 56.64 39.66Z" fill="#002079"/>
</svg>
