<svg width="105" height="105" viewBox="0 0 105 105" fill="none" xmlns="http://www.w3.org/2000/svg">
<path d="M52.5 51.8625C59.0344 51.8625 64.3613 46.0406 64.3613 38.9569C64.3613 31.9538 59.0625 26.4075 52.5 26.4075C45.9938 26.4075 40.6387 32.0363 40.6387 39.0113C40.665 46.0688 45.9919 51.8625 52.5 51.8625ZM20.8687 52.4644C26.5238 52.4644 31.1644 47.3831 31.1644 41.1506C31.1644 35.0569 26.58 30.1406 20.8687 30.1406C15.2119 30.1406 10.5431 35.1375 10.5712 41.205C10.5994 47.4113 15.2119 52.4644 20.8687 52.4644ZM84.1594 52.4644C89.7881 52.4644 94.4287 47.4113 94.4287 41.205C94.4569 35.1375 89.7881 30.1406 84.1594 30.1406C78.4219 30.1406 73.8356 35.055 73.8356 41.1506C73.8356 47.3831 78.4762 52.4644 84.1594 52.4644ZM52.5 47.715C48.4912 47.715 45.0581 43.8713 45.0581 39.0113C45.0581 34.2338 48.4369 30.555 52.5019 30.555C56.5912 30.555 59.9419 34.1794 59.9419 38.955C59.9419 43.8169 56.5631 47.715 52.5 47.715ZM20.8687 48.375C17.5181 48.375 14.6625 45.1613 14.6625 41.2069C14.6625 37.3369 17.49 34.2319 20.8687 34.2319C24.3281 34.2319 27.1013 37.2806 27.1013 41.1525C27.1013 45.1613 24.2456 48.375 20.8687 48.375ZM84.1594 48.375C80.7544 48.375 77.8988 45.1613 77.8988 41.1525C77.8988 37.2806 80.6719 34.2338 84.1594 34.2338C87.5362 34.2338 90.3375 37.3369 90.3375 41.2088C90.3375 45.1613 87.5081 48.375 84.1594 48.375ZM5.60063 77.6438H27.1556C25.8375 76.9031 24.8212 75.255 25.0144 73.5806H4.91438C4.365 73.5806 4.09125 73.3613 4.09125 72.84C4.09125 66.03 11.8612 59.6588 20.8406 59.6588C24.3 59.6588 27.4031 60.4837 30.0656 62.0475C30.949 60.9281 31.995 59.9473 33.1688 59.1375C29.6269 56.8031 25.3706 55.5956 20.8406 55.5956C9.33562 55.5956 0 63.9431 0 73.0875C0 76.1344 1.8675 77.6438 5.60063 77.6438ZM99.4256 77.6438C103.132 77.6438 105 76.1344 105 73.0875C105 63.9431 95.6625 55.5956 84.1594 55.5956C79.6294 55.5956 75.3994 56.8031 71.8313 59.1394C73.0669 59.9888 74.0812 60.9506 74.9625 62.0475C77.5969 60.4837 80.7262 59.6588 84.1594 59.6588C93.1387 59.6588 100.909 66.03 100.909 72.84C100.909 73.3613 100.661 73.5806 100.112 73.5806H80.0119C80.1769 75.255 79.1887 76.9031 77.8706 77.6438H99.4256ZM35.2556 77.6438H69.7444C74.3006 77.6438 76.4719 76.2713 76.4719 73.2506C76.4719 66.0563 67.3819 55.65 52.5 55.65C37.59 55.65 28.5 66.0563 28.5 73.2506C28.5 76.2713 30.6712 77.6438 35.2556 77.6438ZM33.9375 73.5C33.225 73.5 32.9231 73.3069 32.9231 72.7313C32.9231 68.2256 39.8981 59.7975 52.5 59.7975C65.0756 59.7975 72.0506 68.2256 72.0506 72.7294C72.0506 73.3069 71.775 73.4981 71.0625 73.4981L33.9375 73.5Z" fill="#002079"/>
</svg>
