<svg width="69" height="69" viewBox="0 0 69 69" fill="none" xmlns="http://www.w3.org/2000/svg">
<path d="M43.355 7.912H25.645C24.1557 7.83971 22.6979 8.35762 21.5881 9.35337C20.4782 10.3491 19.8058 11.7423 19.7167 13.2308V30.7021C19.7732 33.5757 20.6127 36.3794 22.1447 38.8111C23.6767 41.2429 25.8432 43.2105 28.4107 44.5021C30.2865 45.4962 32.3771 46.016 34.5 46.016C36.6229 46.016 38.7135 45.4962 40.5892 44.5021C43.1568 43.2105 45.3233 41.2429 46.8553 38.8111C48.3873 36.3794 49.2267 33.5757 49.2832 30.7021V13.2308C49.1942 11.7423 48.5217 10.3491 47.4119 9.35337C46.302 8.35762 44.8443 7.83971 43.355 7.912Z" stroke="#002079" stroke-width="1.5" stroke-linecap="round"/>
<path d="M49.2832 13.2308H55.1885C56.6734 13.1655 58.1246 13.6865 59.2288 14.6815C60.333 15.6766 61.0018 17.0658 61.0909 18.5495C61.0818 21.8838 60.2208 25.1605 58.5896 28.0686C56.8817 31.0753 54.4966 33.6425 51.6235 35.5666L49.2832 37.1623L46.9976 38.5451M19.7167 13.2308H13.8115C12.3265 13.1655 10.8754 13.6865 9.77123 14.6815C8.66702 15.6766 7.99822 17.0658 7.90912 18.5495C7.91774 21.8845 8.77737 25.162 10.4104 28.0686C12.1183 31.0753 14.5034 33.6425 17.3765 35.5666L19.7167 37.1623L22.0024 38.5451M28.5976 53.1156V44.5798M40.4024 53.1156V44.5798M25.3287 53.1156H43.6712C44.4082 53.1156 45.138 53.2608 45.8189 53.5428C46.4997 53.8248 47.1184 54.2382 47.6395 54.7593C48.1607 55.2805 48.574 55.8991 48.8561 56.58C49.1381 57.2609 49.2832 57.9906 49.2832 58.7276V59.685C49.2832 60.0586 49.1348 60.4169 48.8706 60.6811C48.6064 60.9453 48.2481 61.0938 47.8745 61.0938H21.1255C20.7519 61.0938 20.3935 60.9453 20.1294 60.6811C19.8652 60.4169 19.7167 60.0586 19.7167 59.685V58.7276C19.7167 57.2397 20.3076 55.8127 21.3594 54.7604C22.4113 53.708 23.838 53.1164 25.3259 53.1156H25.3287Z" stroke="#002079" stroke-width="1.5" stroke-linecap="round"/>
<path d="M34.9111 29.6355L38.3036 31.418C38.4471 31.4926 38.6085 31.5257 38.7697 31.5135C38.931 31.5013 39.0856 31.4443 39.2162 31.349C39.3468 31.2537 39.4481 31.1238 39.5089 30.9739C39.5696 30.8241 39.5873 30.6602 39.56 30.5009L38.9102 26.726C38.8862 26.5869 38.8964 26.4441 38.9399 26.3098C38.9835 26.1755 39.0592 26.0539 39.1604 25.9555L41.906 23.2818C42.024 23.1699 42.108 23.0269 42.1483 22.8693C42.1886 22.7117 42.1835 22.546 42.1336 22.3912C42.0837 22.2364 41.991 22.0988 41.8663 21.9944C41.7416 21.89 41.5899 21.823 41.4287 21.8011L37.6366 21.2549C37.4984 21.2341 37.3674 21.1801 37.2547 21.0975C37.142 21.0148 37.0511 20.9061 36.9897 20.7805L35.2561 17.3161C35.1845 17.1706 35.0736 17.048 34.9359 16.9622C34.7982 16.8765 34.6392 16.8311 34.477 16.8311C34.3148 16.8311 34.1558 16.8765 34.0181 16.9622C33.8804 17.048 33.7695 17.1706 33.6979 17.3161L31.9671 20.7805C31.9053 20.9063 31.8139 21.0152 31.7007 21.0978C31.5875 21.1804 31.456 21.2343 31.3174 21.2549L27.5799 21.8011C27.4184 21.8223 27.2661 21.8885 27.1406 21.9924C27.0151 22.0962 26.9215 22.2333 26.8704 22.3879C26.8194 22.5426 26.813 22.7085 26.852 22.8666C26.8911 23.0247 26.974 23.1686 27.0911 23.2818L29.8367 25.9555C29.9386 26.0535 30.015 26.175 30.0591 26.3093C30.1032 26.4436 30.1137 26.5867 30.0897 26.726L29.44 30.5009C29.4101 30.6606 29.4258 30.8255 29.4855 30.9766C29.5452 31.1278 29.6464 31.259 29.7774 31.3551C29.9084 31.4513 30.0639 31.5084 30.226 31.5201C30.388 31.5317 30.5501 31.4973 30.6935 31.4209L34.086 29.6384C34.2126 29.5694 34.3544 29.5333 34.4986 29.5333C34.6427 29.5333 34.7845 29.5694 34.9111 29.6384" stroke="#002079" stroke-width="1.5" stroke-linecap="round" stroke-linejoin="round"/>
</svg>
